<svg data-v-d3f97b9e="" xmlns="http://www.w3.org/2000/svg" viewBox="0 0 439.9591788475041 163"><!----><!----><!----><g data-v-d3f97b9e="" id="4748a6f7-df39-40c6-b27f-df74532f66d0" fill="white" transform="matrix(6.1224488604322,0,0,6.1224488604322,0.000001945876846320971,98.71428748000815)"><path d="M2.93 0.70L3.91 0.70L3.91 10.50L2.93 10.50L2.93 5.60L0.98 5.60L0.98 10.50L0 10.50L0 0.70L0.98 0.70L0.98 4.62L2.93 4.62L2.93 0.70ZM5.80 0.70L5.80 10.50L4.82 10.50L4.82 0.70L5.80 0.70ZM10.64 0.70L8.83 4.44L10.64 10.50L9.59 10.50L8.22 5.73L7.69 6.82L7.69 10.50L6.71 10.50L6.71 4.62L6.71 4.61L7.69 4.61L6.71 1.68L6.71 0.70L7.67 0.70L7.69 0.70L7.69 1.68L7.69 4.61L7.70 4.61L9.56 0.70L10.64 0.70ZM12.52 0.70L12.52 10.50L11.54 10.50L11.54 0.70L12.52 0.70ZM16.37 0.70L17.35 0.70L17.35 10.50L16.37 10.50L16.37 10.50L16.34 10.50L14.41 4.03L14.41 10.50L13.43 10.50L13.43 0.70L14.41 0.70L14.41 0.71L16.37 7.18L16.37 0.70ZM22.16 4.61L22.16 5.59L22.16 9.39L22.16 9.39Q22.16 9.81 21.90 10.12L21.90 10.12L21.90 10.12Q21.63 10.43 21.22 10.50L21.22 10.50L19.19 10.50L19.19 10.50Q18.79 10.43 18.52 10.12L18.52 10.12L18.52 10.12Q18.26 9.81 18.26 9.39L18.26 9.39L18.26 1.81L18.26 1.81Q18.26 1.39 18.52 1.08L18.52 1.08L18.52 1.08Q18.79 0.77 19.19 0.70L19.19 0.70L21.22 0.70L21.22 0.70Q21.63 0.77 21.90 1.08L21.90 1.08L21.90 1.08Q22.16 1.39 22.16 1.81L22.16 1.81L22.16 2.83L21.18 2.83L21.18 1.81L21.18 1.81Q21.18 1.67 21.04 1.67L21.04 1.67L19.38 1.67L19.38 1.67Q19.24 1.67 19.24 1.81L19.24 1.81L19.24 9.39L19.24 9.39Q19.24 9.53 19.38 9.53L19.38 9.53L21.04 9.53L21.04 9.53Q21.18 9.53 21.18 9.39L21.18 9.39L21.18 5.59L20.02 5.59L20.02 4.61L22.16 4.61ZM29.11 0.70L29.11 1.68L27.73 1.68L27.73 10.50L26.75 10.50L26.75 1.68L25.38 1.68L25.38 0.70L29.11 0.70ZM30.95 0.70L33.01 0.70L33.01 0.70Q33.42 0.77 33.68 1.08L33.68 1.08L33.68 1.08Q33.95 1.39 33.95 1.81L33.95 1.81L33.95 9.39L33.95 9.39Q33.95 9.81 33.68 10.12L33.68 10.12L33.68 10.12Q33.42 10.43 33.01 10.50L33.01 10.50L30.95 10.50L30.95 10.50Q30.55 10.43 30.28 10.12L30.28 10.12L30.28 10.12Q30.02 9.81 30.02 9.39L30.02 9.39L30.02 1.81L30.02 1.81Q30.02 1.39 30.28 1.08L30.28 1.08L30.28 1.08Q30.55 0.77 30.95 0.70L30.95 0.70ZM32.97 9.39L32.97 1.81L32.97 1.81Q32.97 1.67 32.84 1.67L32.84 1.67L31.14 1.67L31.14 1.67Q31.00 1.67 31.00 1.81L31.00 1.81L31.00 9.39L31.00 9.39Q31.00 9.53 31.14 9.53L31.14 9.53L32.84 9.53L32.84 9.53Q32.97 9.53 32.97 9.39L32.97 9.39ZM37.77 0.71L38.75 0.71L38.75 9.39L38.75 9.39Q38.75 9.81 38.49 10.12L38.49 10.12L38.49 10.12Q38.23 10.43 37.83 10.50L37.83 10.50L35.80 10.50L35.80 10.50Q35.39 10.43 35.13 10.12L35.13 10.12L35.13 10.12Q34.86 9.81 34.86 9.39L34.86 9.39L34.86 0.71L35.84 0.71L35.84 9.39L35.84 9.39Q35.84 9.53 35.98 9.53L35.98 9.53L37.65 9.53L37.65 9.53Q37.77 9.53 37.77 9.39L37.77 9.39L37.77 0.71ZM39.66 10.50L39.66 4.62L40.64 4.62L40.64 10.50L39.66 10.50ZM39.66 0.70L42.49 0.70L42.49 0.70Q42.94 0.70 43.27 1.03L43.27 1.03L43.27 1.03Q43.60 1.36 43.60 1.82L43.60 1.82L43.60 4.48L43.60 4.48Q43.60 4.94 43.27 5.27L43.27 5.27L43.27 5.27Q42.94 5.60 42.49 5.60L42.49 5.60L42.14 5.60L43.60 10.50L42.55 10.50L40.85 4.62L42.49 4.62L42.49 4.62Q42.62 4.62 42.62 4.48L42.62 4.48L42.62 1.82L42.62 1.82Q42.62 1.68 42.49 1.68L42.49 1.68L40.64 1.68L40.64 4.62L39.66 1.68L39.66 0.70ZM48.27 2.86L47.29 2.86L47.29 1.81L47.29 1.81Q47.29 1.67 47.15 1.67L47.15 1.67L45.63 1.67L45.63 1.67Q45.49 1.67 45.49 1.81L45.49 1.81L45.49 4.47L45.49 4.47Q45.49 4.56 45.57 4.59L45.57 4.59L47.15 4.59L47.15 4.59Q47.63 4.59 47.95 4.92L47.95 4.92L47.95 4.92Q48.27 5.25 48.27 5.71L48.27 5.71L48.27 9.39L48.27 9.39Q48.27 9.81 48.01 10.12L48.01 10.12L48.01 10.12Q47.74 10.43 47.33 10.50L47.33 10.50L45.44 10.50L45.44 10.50Q45.04 10.43 44.77 10.12L44.77 10.12L44.77 10.12Q44.51 9.81 44.51 9.39L44.51 9.39L44.51 8.34L45.49 8.34L45.49 9.39L45.49 9.39Q45.49 9.53 45.63 9.53L45.63 9.53L47.15 9.53L47.15 9.53Q47.29 9.53 47.29 9.39L47.29 9.39L47.29 5.71L47.29 5.71Q47.29 5.61 47.21 5.59L47.21 5.59L45.63 5.59L45.63 5.59Q45.16 5.59 44.84 5.26L44.84 5.26L44.84 5.26Q44.51 4.93 44.51 4.47L44.51 4.47L44.51 1.81L44.51 1.81Q44.51 1.39 44.77 1.08L44.77 1.08L44.77 1.08Q45.04 0.77 45.44 0.70L45.44 0.70L47.33 0.70L47.33 0.70Q47.74 0.77 48.01 1.08L48.01 1.08L48.01 1.08Q48.27 1.39 48.27 1.81L48.27 1.81L48.27 2.86ZM54.42 8.34L55.40 8.34L55.40 9.39L55.40 9.39Q55.40 9.81 55.14 10.12L55.14 10.12L55.14 10.12Q54.88 10.43 54.47 10.50L54.47 10.50L52.43 10.50L52.43 10.50Q52.02 10.43 51.76 10.12L51.76 10.12L51.76 10.12Q51.49 9.81 51.49 9.39L51.49 9.39L51.49 1.81L51.49 1.81Q51.49 1.39 51.76 1.08L51.76 1.08L51.76 1.08Q52.02 0.77 52.43 0.70L52.43 0.70L54.47 0.70L54.47 0.70Q54.88 0.77 55.14 1.08L55.14 1.08L55.14 1.08Q55.40 1.39 55.40 1.81L55.40 1.81L55.40 2.86L54.42 2.86L54.42 1.81L54.42 1.81Q54.42 1.67 54.29 1.67L54.29 1.67L52.61 1.67L52.61 1.67Q52.47 1.67 52.47 1.81L52.47 1.81L52.47 9.39L52.47 9.39Q52.47 9.53 52.61 9.53L52.61 9.53L54.29 9.53L54.29 9.53Q54.42 9.53 54.42 9.39L54.42 9.39L54.42 8.34ZM59.65 10.50L58.41 2.67L57.69 7.20L58.41 7.20L58.41 8.18L57.54 8.18L57.16 10.50L56.17 10.50L56.55 8.18L56.17 8.18L56.17 7.20L56.70 7.20L57.74 0.70L59.08 0.70L60.65 10.50L59.65 10.50ZM62.17 0.70L64.02 0.70L64.02 0.70Q64.47 0.70 64.80 1.03L64.80 1.03L64.80 1.03Q65.13 1.36 65.13 1.82L65.13 1.82L65.13 4.48L65.13 4.48Q65.13 4.94 64.80 5.27L64.80 5.27L64.80 5.27Q64.47 5.60 64.02 5.60L64.02 5.60L62.17 5.60L62.17 10.50L61.19 10.50L61.19 4.62L62.17 4.62L61.19 1.68L61.19 0.70L62.16 0.70L62.17 0.70ZM64.15 4.48L64.15 1.82L64.15 1.82Q64.15 1.68 64.02 1.68L64.02 1.68L62.17 1.68L62.17 4.62L64.02 4.62L64.02 4.62Q64.15 4.62 64.15 4.48L64.15 4.48ZM66.04 10.50L66.04 4.62L67.02 4.62L67.02 10.50L66.04 10.50ZM66.04 0.70L68.87 0.70L68.87 0.70Q69.31 0.70 69.64 1.03L69.64 1.03L69.64 1.03Q69.97 1.36 69.97 1.82L69.97 1.82L69.97 4.48L69.97 4.48Q69.97 4.94 69.64 5.27L69.64 5.27L69.64 5.27Q69.31 5.60 68.87 5.60L68.87 5.60L68.52 5.60L69.97 10.50L68.92 10.50L67.23 4.62L68.87 4.62L68.87 4.62Q68.99 4.62 68.99 4.48L68.99 4.48L68.99 1.82L68.99 1.82Q68.99 1.68 68.87 1.68L68.87 1.68L67.02 1.68L67.02 4.62L66.04 1.68L66.04 0.70ZM71.86 0.70L71.86 10.50L70.88 10.50L70.88 0.70L71.86 0.70Z"></path></g><!----><g data-v-d3f97b9e="" id="ab690614-2ec0-4240-8bc7-039dc1d5ac39" transform="matrix(1.0882708986836664,0,0,1.0882708986836664,167.30829800656187,-8.767956885893248)" stroke="none" fill="white"><path d="M63.3 17.1c0 4.7-3.8 8.4-8.4 8.4s-8.4-3.8-8.4-8.4 3.8-8.4 8.4-8.4 8.4 3.8 8.4 8.4zM41.9 27.9c.5-1.7-.6-4-2.8-4.1-1.2 0-3.7-.1-5.6-.1s-3.6.3-4.1 2l-8 22.1c-.5 1.7.4 3.5 2.1 4l6.1 2.5c1.7.6 3.6-.3 4.1-2l8.2-24.4zm32.5 19.4l-.8-.4V36.1h-3v9.3L64 42.3l-8.2-11.4c-1.3-2.6-3.7-4.6-7.6-4-3.6.5-4.9 4.5-5.8 8.9L40 47.5l-2 9.1c-.1.4-.1.7-.1 1L35.8 68 23.5 83.5c-1.4 1.7-1.1 4.3.7 5.6.7.6 1.5.8 2.4.9 1.2 0 2.4-.5 3.2-1.5l12.8-16.3c.4-.5.6-1 .8-1.6l2-9.2 7.7 10.2.8 16c.1 2.1 1.8 3.8 3.9 3.8h.3c2.2-.1 3.9-2 3.8-4.2L61 69.9c0-.8-.3-1.6-.8-2.2L52.9 58l3.4-16.1 3.2 4.5c.3.4.7.7 1.1 1l9.9 4.7v38.1h3V52.9c.9-.1 1.8-.7 2.2-1.7.8-1.4.2-3.2-1.3-3.9z"></path></g><!----></svg>