<svg data-v-d3f97b9e="" xmlns="http://www.w3.org/2000/svg" viewBox="0 0 39.75313418675541 60"><!----><!----><!----><!----><g data-v-d3f97b9e="" id="837b06d9-3f4f-4fbc-bd42-358dcf5ae36c" transform="matrix(0.7255139324557777,0,0,0.7255139324557777,-15.426199664733502,-6.311971765888472)" stroke="none" fill="black"><path d="M63.3 17.1c0 4.7-3.8 8.4-8.4 8.4s-8.4-3.8-8.4-8.4 3.8-8.4 8.4-8.4 8.4 3.8 8.4 8.4zM41.9 27.9c.5-1.7-.6-4-2.8-4.1-1.2 0-3.7-.1-5.6-.1s-3.6.3-4.1 2l-8 22.1c-.5 1.7.4 3.5 2.1 4l6.1 2.5c1.7.6 3.6-.3 4.1-2l8.2-24.4zm32.5 19.4l-.8-.4V36.1h-3v9.3L64 42.3l-8.2-11.4c-1.3-2.6-3.7-4.6-7.6-4-3.6.5-4.9 4.5-5.8 8.9L40 47.5l-2 9.1c-.1.4-.1.7-.1 1L35.8 68 23.5 83.5c-1.4 1.7-1.1 4.3.7 5.6.7.6 1.5.8 2.4.9 1.2 0 2.4-.5 3.2-1.5l12.8-16.3c.4-.5.6-1 .8-1.6l2-9.2 7.7 10.2.8 16c.1 2.1 1.8 3.8 3.9 3.8h.3c2.2-.1 3.9-2 3.8-4.2L61 69.9c0-.8-.3-1.6-.8-2.2L52.9 58l3.4-16.1 3.2 4.5c.3.4.7.7 1.1 1l9.9 4.7v38.1h3V52.9c.9-.1 1.8-.7 2.2-1.7.8-1.4.2-3.2-1.3-3.9z"></path></g><!----></svg>