<svg data-v-29081953="" xmlns="http://www.w3.org/2000/svg" viewBox="0 0 300 300"><!----><defs data-v-29081953=""><!----></defs><rect data-v-29081953="" fill="transparent" x="0" y="0" width="300px" height="300px" class="logo-background-square"></rect><!----><defs data-v-29081953=""><linearGradient data-v-29081953="" gradientTransform="rotate(25)" id="c808902b-2058-41b5-9c49-75293af8b71f" x1="0%" y1="0%" x2="100%" y2="0%"><stop data-v-29081953="" offset="0%" stop-color="#000A68" stop-opacity="1"></stop><stop data-v-29081953="" offset="100%" stop-color="#00C4EE" stop-opacity="1"></stop></linearGradient></defs><g data-v-29081953="" id="5f32f85b-fe54-4a12-9550-da7a4b3f174e" fill="url(#c808902b-2058-41b5-9c49-75293af8b71f)" stroke="none" transform="matrix(2.6602177523378514,0,0,2.6602177523378514,20.556519147197875,16.856103525075614)"><path d="M63.3 17.1c0 4.7-3.8 8.4-8.4 8.4s-8.4-3.8-8.4-8.4 3.8-8.4 8.4-8.4 8.4 3.8 8.4 8.4zM41.9 27.9c.5-1.7-.6-4-2.8-4.1-1.2 0-3.7-.1-5.6-.1s-3.6.3-4.1 2l-8 22.1c-.5 1.7.4 3.5 2.1 4l6.1 2.5c1.7.6 3.6-.3 4.1-2l8.2-24.4zm32.5 19.4l-.8-.4V36.1h-3v9.3L64 42.3l-8.2-11.4c-1.3-2.6-3.7-4.6-7.6-4-3.6.5-4.9 4.5-5.8 8.9L40 47.5l-2 9.1c-.1.4-.1.7-.1 1L35.8 68 23.5 83.5c-1.4 1.7-1.1 4.3.7 5.6.7.6 1.5.8 2.4.9 1.2 0 2.4-.5 3.2-1.5l12.8-16.3c.4-.5.6-1 .8-1.6l2-9.2 7.7 10.2.8 16c.1 2.1 1.8 3.8 3.9 3.8h.3c2.2-.1 3.9-2 3.8-4.2L61 69.9c0-.8-.3-1.6-.8-2.2L52.9 58l3.4-16.1 3.2 4.5c.3.4.7.7 1.1 1l9.9 4.7v38.1h3V52.9c.9-.1 1.8-.7 2.2-1.7.8-1.4.2-3.2-1.3-3.9z"></path></g><!----></svg>